Coordinates
version=1
nRows=12
nColumns=32
inDegrees=yes

Units are S.I. units (second, meters, Newtons, ...)
If the header above contains a line with 'inDegrees', this indicates whether rotational values are in degrees (yes) or radians (no).

endheader
time	pelvis_tilt	pelvis_list	pelvis_rotation	pelvis_tx	pelvis_ty	pelvis_tz	hip_flexion_r	hip_adduction_r	hip_rotation_r	knee_angle_r	knee_adduction_r	med_cond_adduction_r	lat_cond_adduction_r	patella_r_constrained_knee_angle	ankle_angle_r	subtalar_angle_r	mtp_angle_r	hip_flexion_l	hip_adduction_l	hip_rotation_l	knee_angle_l	knee_adduction_l	med_cond_adduction_l	lat_cond_adduction_l	patella_l_constrained_knee_angle	ankle_angle_l	subtalar_angle_l	mtp_angle_l	lumbar_extension	lumbar_bending	lumbar_rotation
      0.22916667	    -23.54500154	     17.33256641	     71.76605055	      0.48303193	      1.12212690	     -0.56651282	    -24.87928152	    -30.65012255	     -0.02586109	    -10.50315217	      0.00000000	     -0.00000000	      0.00000000	     -0.18331459	     -5.07943659	     11.45446124	      0.00000000	    -18.12498428	     28.74722428	    -10.33089231	    -52.90174421	      0.00000000	      0.00000000	     -0.00000000	     -0.92330962	      5.98677749	      4.42227845	     -0.00000000	     -0.00000000	     -0.00000000	     -0.00000000
      0.23333333	    -24.54991028	     16.45676201	     72.09825697	      0.48187451	      1.12321633	     -0.57949192	    -24.33479891	    -31.71600766	     -2.95883037	    -10.62404516	      0.00000000	      0.00000000	     -0.00000000	     -0.18542457	     -6.81748970	     13.71049156	     -0.00000000	    -16.09986436	     29.32949310	    -10.39078477	    -51.78315773	     -0.00000000	     -0.00000000	      0.00000000	     -0.90378660	      5.76478748	      3.95564037	     -0.00000000	     -0.00000000	     -0.00000000	     -0.00000000
      0.23750000	    -25.22130061	     15.55511319	     72.42551187	      0.48073387	      1.12448099	     -0.59244584	    -23.86065257	    -32.41222654	     -5.73004842	    -10.69444482	     -0.00000000	      0.00000000	     -0.00000000	     -0.18665327	     -8.85880804	     15.52637958	      0.00000000	    -14.16322437	     29.56716916	    -10.44056682	    -50.65511663	      0.00000000	     -0.00000000	      0.00000000	     -0.88409857	      5.42486242	      3.47410940	     -0.00000000	      0.00000000	     -0.00000000	     -0.00000000
      0.24166667	    -25.78587076	     14.59991956	     72.75882818	      0.47954269	      1.12579245	     -0.60546656	    -23.37984440	    -32.97315407	     -8.38610634	    -10.73505643	     -0.00000000	     -0.00000000	     -0.00000000	     -0.18736208	    -11.14673409	     16.99898823	      0.00000000	    -12.22529103	     29.69227226	    -10.48466883	    -49.46980994	      0.00000000	      0.00000000	     -0.00000000	     -0.86341106	      5.05975975	      3.15484305	      0.00000000	      0.00000000	      0.00000000	      0.00000000
      0.24583333	    -26.23195266	     13.62965893	     73.09223438	      0.47831308	      1.12718908	     -0.61842547	    -22.89853008	    -33.39897805	    -10.91405477	    -10.76863631	     -0.00000000	      0.00000000	     -0.00000000	     -0.18794816	    -13.64520656	     18.03404586	     -0.00000000	    -10.34575806	     29.74801845	    -10.37552273	    -48.16962699	     -0.00000000	      0.00000000	     -0.00000000	     -0.84071859	      4.06280420	      2.36448689	     -0.00000000	      0.00000000	     -0.00000000	      0.00000000
      0.25000000	    -26.63150140	     12.70459216	     73.41593680	      0.47705968	      1.12865357	     -0.63143232	    -22.46866639	    -33.79100093	    -13.39381486	    -10.88582035	      0.00000000	      0.00000000	     -0.00000000	     -0.18999341	    -16.22615693	     18.64852375	      0.00000000	     -8.56368691	     29.78305635	    -10.22499360	    -46.78813041	     -0.00000000	     -0.00000000	      0.00000000	     -0.81660693	      3.48822296	      2.00466440	     -0.00000000	      0.00000000	     -0.00000000	      0.00000000
      0.25416667	    -26.98791143	     11.74235416	     73.74329864	      0.47573142	      1.13008373	     -0.64436946	    -21.99806752	    -34.12754889	    -15.76385001	    -10.92371673	     -0.00000000	     -0.00000000	      0.00000000	     -0.19065482	    -19.00777248	     19.00491574	     -0.00000000	     -6.78176732	     29.80243373	     -9.97176992	    -45.33874829	     -0.00000000	     -0.00000000	      0.00000000	     -0.79131044	      2.79534903	      1.60632448	      0.00000000	      0.00000000	     -0.00000000	      0.00000000
      0.25833333	    -27.28296015	     10.82275475	     74.07867009	      0.47430715	      1.13154822	     -0.65728365	    -21.58015949	    -34.42693915	    -18.06086607	    -10.91719107	     -0.00000000	      0.00000000	     -0.00000000	     -0.19054093	    -21.97384589	     19.20828798	      0.00000000	     -5.09833959	     29.81454065	     -9.59599066	    -43.81954151	     -0.00000000	     -0.00000000	      0.00000000	     -0.76479528	      2.13329230	      1.17669444	      0.00000000	      0.00000000	     -0.00000000	      0.00000000
      0.26250000	    -27.54706546	      9.91071461	     74.40899812	      0.47284344	      1.13293340	     -0.67029258	    -21.17991080	    -34.71280955	    -20.35443858	    -10.95266357	      0.00000000	      0.00000000	     -0.00000000	     -0.19116004	    -24.97884053	     19.31303597	      0.00000000	     -3.48308118	     29.82562543	     -9.13540878	    -42.22076586	     -0.00000000	      0.00000000	     -0.00000000	     -0.73689138	      1.32595843	      0.75582095	     -0.00000000	      0.00000000	      0.00000000	      0.00000000
      0.26666667	    -27.76293241	      9.00418198	     74.76911571	      0.47122123	      1.13427130	     -0.68328502	    -20.80085928	    -34.96301557	    -22.63739634	    -11.00145840	     -0.00000000	     -0.00000000	      0.00000000	     -0.19201167	    -28.04220124	     19.37435946	     -0.00000000	     -1.93076831	     29.83038910	     -8.54028629	    -40.57412904	     -0.00000000	     -0.00000000	      0.00000000	     -0.70815214	      0.32677917	      0.26256145	      0.00000000	      0.00000000	      0.00000000	      0.00000000
      0.27083333	    -27.95609105	      8.10744610	     75.12572836	      0.46962471	      1.13548701	     -0.69629414	    -20.42072102	    -35.20791529	    -24.90762260	    -11.10958005	     -0.00000000	      0.00000000	     -0.00000000	     -0.19389875	    -31.06624974	     19.39839072	     -0.00000000	     -0.42817497	     29.83024367	     -7.85733829	    -38.89487419	      0.00000000	      0.00000000	     -0.00000000	     -0.67884362	     -0.50342743	     -0.17573498	      0.00000000	      0.00000000	     -0.00000000	      0.00000000
      0.27500000	    -28.13768476	      7.10091242	     75.46654758	      0.46781871	      1.13636218	     -0.70940469	    -19.91499339	    -35.44731805	    -27.07189713	    -11.21607865	      0.00000000	      0.00000000	     -0.00000000	     -0.19575750	    -34.01628613	     19.41223235	     -0.00000000	      1.16838838	     29.82813645	     -7.13646771	    -37.19366119	     -0.00000000	      0.00000000	     -0.00000000	     -0.64915185	     -1.67507938	     -0.98644430	      0.00000000	      0.00000000	     -0.00000000	      0.00000000
